<?xml version="1.0" encoding="UTF-8"?>
<svg xmlns="http://www.w3.org/2000/svg" style="stroke-dasharray:none; shape-rendering:auto; font-family:'Arial'; text-rendering:auto; fill-opacity:1; color-interpolation:auto; color-rendering:auto; font-size:12; fill:black; stroke:black; image-rendering:auto; stroke-miterlimit:10; stroke-linecap:square; stroke-linejoin:miter; font-style:normal; stroke-width:1; stroke-dashoffset:0; font-weight:normal; stroke-opacity:1;" contentScriptType="text/ecmascript" preserveAspectRatio="xMidYMid meet" zoomAndPan="magnify" version="1.0" contentStyleType="text/css" xml:xlink="http://www.w3.org/1999/xlink" width="1551" height="1011"><rect x="10" y="3" width="1541" height="1008" ry="0" rx="0" style="stroke:#000000; fill:#FFFFFF" /><rect x="40" y="606" width="1511" height="201" ry="0" rx="0" style="stroke:#000000; fill:#FFFFFF" /><g componentSequence="8"><text x="-706" y="48" transform="rotate(270)" text-anchor="middle" style="font-weight:bold;font-size:10px;stroke:none; fill:#434343"><tspan dy="14" x="-706">Suprimentos</tspan></text></g><rect x="40" y="405" width="1511" height="201" ry="0" rx="0" style="stroke:#000000; fill:#FFFFFF" /><g componentSequence="7"><text x="-505" y="48" transform="rotate(270)" text-anchor="middle" style="font-weight:bold;font-size:10px;stroke:none; fill:#434343"><tspan dy="14" x="-505">Aprovadores</tspan></text></g><rect x="40" y="807" width="1511" height="204" ry="0" rx="0" style="stroke:#000000; fill:#FFFFFF" /><g componentSequence="4"><text x="-909" y="48" transform="rotate(270)" text-anchor="middle" style="font-weight:bold;font-size:10px;stroke:none; fill:#434343"><tspan dy="14" x="-909">Financeiro</tspan></text></g><rect x="40" y="204" width="1511" height="201" ry="0" rx="0" style="stroke:#000000; fill:#FFFFFF" /><g componentSequence="3"><text x="-304" y="48" transform="rotate(270)" text-anchor="middle" style="font-weight:bold;font-size:10px;stroke:none; fill:#434343"><tspan dy="14" x="-304">Aprovadores</tspan></text></g><rect x="40" y="3" width="1511" height="201" ry="0" rx="0" style="stroke:#000000; fill:#FFFFFF" /><g componentSequence="2"><text x="-103" y="48" transform="rotate(270)" text-anchor="middle" style="font-weight:bold;font-size:10px;stroke:none; fill:#434343"><tspan dy="14" x="-103">Solicitante</tspan></text></g><g componentSequence="1"><text x="-507" y="18" transform="rotate(270)" text-anchor="middle" style="font-weight:bold;font-size:10px;stroke:none; fill:#434343"><tspan dy="14" x="-507">FDR - Faturamento de despesas reembolsáveis</tspan></text></g><g sequence="2"><ellipse cx="147" cy="117" rx="17" ry="17" stroke-width="1" style="fill:url(#linearGradient66FF6696FF96B6FFB6_377118981);" stroke="336633" /></g><g sequence="3"><rect x="360" y="463" width="106" height="92" ry="5" rx="5" style="fill:url(#linearGradientF8FBFEEDF5FCDEEDFAD4E7F8E2E5E9_415075770);" stroke="191970" /></g><g componentSequence="3"><text x="413" y="478" text-anchor="middle" style="font-weight:bold;font-size:10px;stroke:none; fill:#333399"><tspan dy="14" x="413">Realizar</tspan><tspan dy="14" x="413">Aprovação</tspan><tspan dy="14" x="413">(Supervisor)</tspan></text></g><g sequence="5"><rect x="360" y="252" width="106" height="108" ry="5" rx="5" style="fill:url(#linearGradientF8FBFEEDF5FCDEEDFAD4E7F8E2E5E9_478284405);" stroke="191970" /></g><g componentSequence="5"><text x="413" y="267" text-anchor="middle" style="font-weight:bold;font-size:10px;stroke:none; fill:#333399"><tspan dy="14" x="413">Realizar</tspan><tspan dy="14" x="413">Aprovação</tspan><tspan dy="14" x="413">(Coordenador)</tspan></text></g><g sequence="6"><polygon points=" 250 400 280 370 310 400 280 430 250 400" style="fill:url(#linearGradientFAFBFCFFFFCC_1501595521);" stroke="000000" /></g><g componentSequence="6"><text x="280" y="435" text-anchor="middle" style="font-weight:bold;font-size:10px;stroke:none; fill:#333399"><tspan dy="14" x="280">Destino</tspan></text></g><g sequence="7"><rect x="630" y="455" width="106" height="108" ry="5" rx="5" style="fill:url(#linearGradientF8FBFEEDF5FCDEEDFAD4E7F8E2E5E9_481802237);" stroke="191970" /></g><g componentSequence="7"><text x="683" y="470" text-anchor="middle" style="font-weight:bold;font-size:10px;stroke:none; fill:#333399"><tspan dy="14" x="683">Realizar</tspan><tspan dy="14" x="683">Aprovação</tspan><tspan dy="14" x="683">(Coordenador)</tspan></text></g><g sequence="8"><polygon points=" 520 485 550 455 580 485 550 515 520 485" style="fill:url(#linearGradientFAFBFCFFFFCC_1754478988);" stroke="000000" /></g><g componentSequence="8"><text x="550" y="525" text-anchor="middle" style="font-weight:bold;font-size:10px;stroke:none; fill:#333399"><tspan dy="14" x="550">Aprova</tspan><tspan dy="14" x="550">do</tspan></text></g><g sequence="9"><rect x="630" y="260" width="106" height="92" ry="5" rx="5" style="fill:url(#linearGradientF8FBFEEDF5FCDEEDFAD4E7F8E2E5E9_1682855753);" stroke="191970" /></g><g componentSequence="9"><text x="683" y="275" text-anchor="middle" style="font-weight:bold;font-size:10px;stroke:none; fill:#333399"><tspan dy="14" x="683">Realizar</tspan><tspan dy="14" x="683">Aprovação</tspan><tspan dy="14" x="683">(Gerente)</tspan></text></g><g sequence="10"><rect x="950" y="260" width="106" height="92" ry="5" rx="5" style="fill:url(#linearGradientF8FBFEEDF5FCDEEDFAD4E7F8E2E5E9_967801038);" stroke="191970" /></g><g componentSequence="10"><text x="1003" y="275" text-anchor="middle" style="font-weight:bold;font-size:10px;stroke:none; fill:#333399"><tspan dy="14" x="1003">Realizar</tspan><tspan dy="14" x="1003">Aprovação</tspan><tspan dy="14" x="1003">(Diretor)</tspan></text></g><g sequence="11"><polygon points=" 800 282 830 252 860 282 830 312 800 282" style="fill:url(#linearGradientFAFBFCFFFFCC_403060825);" stroke="000000" /></g><g componentSequence="11"><text x="830" y="322" text-anchor="middle" style="font-weight:bold;font-size:10px;stroke:none; fill:#333399"><tspan dy="14" x="830">Aprova</tspan><tspan dy="14" x="830">do</tspan></text></g><g sequence="15"><ellipse cx="1497" cy="911" rx="17" ry="17" stroke-width="3" style="fill:url(#linearGradientFF6666FF9696FFB6B6_1764244876);" stroke="993333" /></g><g sequence="16"><polygon points=" 520 282 550 252 580 282 550 312 520 282" style="fill:url(#linearGradientFAFBFCFFFFCC_2135612415);" stroke="000000" /></g><g componentSequence="16"><text x="550" y="322" text-anchor="middle" style="font-weight:bold;font-size:10px;stroke:none; fill:#333399"><tspan dy="14" x="550">Aprova</tspan><tspan dy="14" x="550">do</tspan></text></g><g sequence="17"><polygon points=" 1123 282 1153 252 1183 282 1153 312 1123 282" style="fill:url(#linearGradientFAFBFCFFFFCC_1038198224);" stroke="000000" /></g><g componentSequence="17"><text x="1153" y="322" text-anchor="middle" style="font-weight:bold;font-size:10px;stroke:none; fill:#333399"><tspan dy="14" x="1153">Aprova</tspan><tspan dy="14" x="1153">do</tspan></text></g><g sequence="18"><polygon points=" 800 485 830 455 860 485 830 515 800 485" style="fill:url(#linearGradientFAFBFCFFFFCC_336369349);" stroke="000000" /></g><g componentSequence="18"><text x="830" y="525" text-anchor="middle" style="font-weight:bold;font-size:10px;stroke:none; fill:#333399"><tspan dy="14" x="830">Aprova</tspan><tspan dy="14" x="830">do</tspan></text></g><g sequence="26"><rect x="230" y="80" width="106" height="76" ry="5" rx="5" style="fill:url(#linearGradientF8FBFEEDF5FCDEEDFAD4E7F8E2E5E9_1021316501);" stroke="191970" /></g><g componentSequence="26"><text x="283" y="95" text-anchor="middle" style="font-weight:bold;font-size:10px;stroke:none; fill:#333399"><tspan dy="14" x="283">Realizar</tspan><tspan dy="14" x="283">Correções</tspan></text></g><g sequence="28"><rect x="1307" y="858" width="106" height="108" ry="5" rx="5" style="fill:url(#linearGradientF8FBFEEDF5FCDEEDFAD4E7F8E2E5E9_366787797);" stroke="191970" /></g><g componentSequence="28"><text x="1360" y="873" text-anchor="middle" style="font-weight:bold;font-size:10px;stroke:none; fill:#333399"><tspan dy="14" x="1360">Realizar o</tspan><tspan dy="14" x="1360">faturamento /</tspan><tspan dy="14" x="1360">Cobrança ao</tspan><tspan dy="14" x="1360">cliente</tspan></text></g><g sequence="84"><rect x="1100" y="655" width="106" height="108" ry="5" rx="5" style="fill:url(#linearGradientF8FBFEEDF5FCDEEDFAD4E7F8E2E5E9_623068315);" stroke="191970" /></g><g componentSequence="84"><text x="1153" y="670" text-anchor="middle" style="font-weight:bold;font-size:10px;stroke:none; fill:#333399"><tspan dy="14" x="1153">Realizar a</tspan><tspan dy="14" x="1153">compra e</tspan><tspan dy="14" x="1153">gerar a(s)</tspan><tspan dy="14" x="1153">RF(s)</tspan></text></g><g sequence="92"><ellipse cx="397" cy="117" rx="17" ry="17" stroke-width="1" style="fill:url(#linearGradientFFFF66FFFF96FFFFB6_1441354820);" stroke="999900" /></g><g sequence="92"><polygon points=" 383 110 398 110 398 103 413 118 398 133 398 126 383 126" style="stroke:#999900; fill:none" /></g><g sequence="94"><ellipse cx="549" cy="197" rx="17" ry="17" stroke-width="1" style="fill:url(#linearGradientFFFF66FFFF96FFFFB6_1767466953);" stroke="999900" /></g><g sequence="94"><polygon points=" 535 190 550 190 550 183 565 198 550 213 550 206 535 206" style="stroke:none; fill:#999900" /></g><g sequence="95"><ellipse cx="829" cy="197" rx="17" ry="17" stroke-width="1" style="fill:url(#linearGradientFFFF66FFFF96FFFFB6_420697123);" stroke="999900" /></g><g sequence="95"><polygon points=" 815 190 830 190 830 183 845 198 830 213 830 206 815 206" style="stroke:none; fill:#999900" /></g><g sequence="96"><ellipse cx="1152" cy="197" rx="17" ry="17" stroke-width="1" style="fill:url(#linearGradientFFFF66FFFF96FFFFB6_648797190);" stroke="999900" /></g><g sequence="96"><polygon points=" 1138 190 1153 190 1153 183 1168 198 1153 213 1153 206 1138 206" style="stroke:none; fill:#999900" /></g><g sequence="97"><ellipse cx="829" cy="407" rx="17" ry="17" stroke-width="1" style="fill:url(#linearGradientFFFF66FFFF96FFFFB6_964683747);" stroke="999900" /></g><g sequence="97"><polygon points=" 815 400 830 400 830 393 845 408 830 423 830 416 815 416" style="stroke:none; fill:#999900" /></g><g sequence="98"><ellipse cx="549" cy="407" rx="17" ry="17" stroke-width="1" style="fill:url(#linearGradientFFFF66FFFF96FFFFB6_456833066);" stroke="999900" /></g><g sequence="98"><polygon points=" 535 400 550 400 550 393 565 408 550 423 550 416 535 416" style="stroke:none; fill:#999900" /></g><g sequence="117"><rect x="95" y="654" width="106" height="108" ry="5" rx="5" style="fill:url(#linearGradientF8FBFEEDF5FCDEEDFAD4E7F8E2E5E9_411784482);" stroke="191970" /></g><g componentSequence="117"><text x="148" y="669" text-anchor="middle" style="font-weight:bold;font-size:10px;stroke:none; fill:#333399"><tspan dy="14" x="148">Analisar</tspan><tspan dy="14" x="148">solicitação e</tspan><tspan dy="14" x="148">realizar</tspan><tspan dy="14" x="148">cotação</tspan></text></g><rect x="170" y="10" width="105" height="61" ry="5" rx="5" style="stroke:none; fill:#FFFFE0" /><g componentSequence="120"><text x="180" y="33" text-anchor="left" style="font-weight:bold;font-size:10px;stroke:none; fill:#000000"><tspan dy="14" x="180">Gestão de</tspan><tspan dy="14" x="180">Clientes</tspan></text></g><path style="fill:none; stroke-width:1; stroke:#000000;" d="M190.0 10.0 L170.0 10.0 L170.0 71.0 L190.0 71.0" /><g sequence="130"><polygon points=" 1330 677 1360 647 1390 677 1360 707 1330 677" style="fill:url(#linearGradientFAFBFCFFFFCC_1622729177);" stroke="000000" /></g><g componentSequence="130"><text x="1360" y="717" text-anchor="middle" style="font-weight:bold;font-size:10px;stroke:none; fill:#333399"><tspan dy="14" x="1360">RF(s)</tspan><tspan dy="14" x="1360">Finaliz</tspan><tspan dy="14" x="1360">ada(s)?</tspan></text></g><g sequence="135"><polygon points=" 250 684 280 654 310 684 280 714 250 684" style="fill:url(#linearGradientFAFBFCFFFFCC_650003154);" stroke="000000" /></g><g componentSequence="135"><text x="280" y="724" text-anchor="middle" style="font-weight:bold;font-size:10px;stroke:none; fill:#333399"><tspan dy="14" x="280">Aprova</tspan><tspan dy="14" x="280">do</tspan></text></g><g sequence="138"><ellipse cx="367" cy="707" rx="17" ry="17" stroke-width="1" style="fill:url(#linearGradientFFFF66FFFF96FFFFB6_1745569223);" stroke="999900" /></g><g sequence="138"><polygon points=" 353 700 368 700 368 693 383 708 368 723 368 716 353 716" style="stroke:none; fill:#999900" /></g><g sequence="141"><ellipse cx="1267" cy="637" rx="17" ry="17" stroke-width="1" style="fill:url(#linearGradientFFFF66FFFF96FFFFB6_720060321);" stroke="999900" /></g><g sequence="141"><rect x="1257" y="627" width="21" height="21" ry="0" rx="0" style="stroke:#000000; fill:none" /></g><g sequence="141"><path style="fill:none; stroke-width:1; stroke:#000000;" d="M1259.0 630.0 L1274.0 630.0" /></g><g sequence="141"><path style="fill:none; stroke-width:1; stroke:#000000;" d="M1259.0 635.0 L1274.0 635.0" /></g><g sequence="141"><path style="fill:none; stroke-width:1; stroke:#000000;" d="M1259.0 640.0 L1274.0 640.0" /></g><g sequence="141"><path style="fill:none; stroke-width:1; stroke:#000000;" d="M1259.0 645.0 L1274.0 645.0" /></g><g componentSequence="32"><text x="503" y="509" style="font-size:10px;font-weight:none;stroke:none; fill:#333399" text-anchor="left" /></g><g componentSequence="34"><text x="503" y="306" style="font-size:10px;font-weight:none;stroke:none; fill:#333399" text-anchor="left" /></g><g componentSequence="35"><text x="345" y="370" style="font-size:10px;font-weight:none;stroke:none; fill:#333399" text-anchor="left" /></g><g componentSequence="36"><text x="345" y="454" style="font-size:10px;font-weight:none;stroke:none; fill:#333399" text-anchor="left" /></g><g componentSequence="37"><text x="760" y="480" style="font-size:10px;font-weight:none;stroke:none; fill:#333399" text-anchor="left"><tspan dy="14" x="760">Sim</tspan></text></g><g componentSequence="38"><text x="590" y="480" style="font-size:10px;font-weight:none;stroke:none; fill:#333399" text-anchor="left"><tspan dy="14" x="590">Sim</tspan></text></g><g componentSequence="42"><text x="760" y="280" style="font-size:10px;font-weight:none;stroke:none; fill:#333399" text-anchor="left"><tspan dy="14" x="760">Sim</tspan></text></g><g componentSequence="43"><text x="1099" y="306" style="font-size:10px;font-weight:none;stroke:none; fill:#333399" text-anchor="left" /></g><g componentSequence="44"><text x="900" y="284" style="font-size:10px;font-weight:none;stroke:none; fill:#333399" text-anchor="left"><tspan dy="14" x="900">Sim</tspan></text></g><g componentSequence="51"><text x="590" y="284" style="font-size:10px;font-weight:none;stroke:none; fill:#333399" text-anchor="left"><tspan dy="14" x="590">Sim</tspan></text></g><g componentSequence="73"><text x="1456" y="911" style="font-size:10px;font-weight:none;stroke:none; fill:#333399" text-anchor="left" /></g><g componentSequence="93"><text x="368" y="117" style="font-size:10px;font-weight:none;stroke:none; fill:#333399" text-anchor="left" /></g><g componentSequence="104"><text x="1162" y="233" style="font-size:10px;font-weight:none;stroke:none; fill:#333399" text-anchor="left" /></g><g componentSequence="105"><text x="839" y="233" style="font-size:10px;font-weight:none;stroke:none; fill:#333399" text-anchor="left" /></g><g componentSequence="106"><text x="559" y="233" style="font-size:10px;font-weight:none;stroke:none; fill:#333399" text-anchor="left" /></g><g componentSequence="107"><text x="559" y="440" style="font-size:10px;font-weight:none;stroke:none; fill:#333399" text-anchor="left" /></g><g componentSequence="108"><text x="839" y="440" style="font-size:10px;font-weight:none;stroke:none; fill:#333399" text-anchor="left" /></g><g componentSequence="109"><text x="990" y="601" style="font-size:10px;font-weight:none;stroke:none; fill:#333399" text-anchor="left" /></g><g componentSequence="110"><text x="762" y="708" style="font-size:10px;font-weight:none;stroke:none; fill:#333399" text-anchor="left" /></g><g componentSequence="111"><text x="995" y="499" style="font-size:10px;font-weight:none;stroke:none; fill:#333399" text-anchor="left" /></g><g componentSequence="112"><text x="1163" y="507" style="font-size:10px;font-weight:none;stroke:none; fill:#333399" text-anchor="left"><tspan dy="14" x="1163">Sim</tspan></text></g><g componentSequence="118"><text x="157" y="394" style="font-size:10px;font-weight:none;stroke:none; fill:#333399" text-anchor="left" /></g><g componentSequence="121"><text x="189" y="85" style="font-size:10px;font-weight:none;stroke:none; fill:#333399" text-anchor="left" /></g><g componentSequence="132"><text x="1370" y="814" style="font-size:10px;font-weight:none;stroke:none; fill:#333399" text-anchor="left" /></g><g componentSequence="133"><text x="1278" y="709" style="font-size:10px;font-weight:none;stroke:none; fill:#333399" text-anchor="left" /></g><g componentSequence="136"><text x="235" y="708" style="font-size:10px;font-weight:none;stroke:none; fill:#333399" text-anchor="left" /></g><g componentSequence="137"><text x="290" y="558" style="font-size:10px;font-weight:none;stroke:none; fill:#333399" text-anchor="left" /></g><g componentSequence="139"><text x="340" y="707" style="font-size:10px;font-weight:none;stroke:none; fill:#333399" text-anchor="left" /></g><g componentSequence="140"><text x="227" y="405" style="font-size:10px;font-weight:none;stroke:none; fill:#333399" text-anchor="left" /></g><g componentSequence="142"><text x="1238" y="662" style="font-size:10px;font-weight:none;stroke:none; fill:#333399" text-anchor="left" /></g><g componentSequence="143"><text x="1317" y="668" style="font-size:10px;font-weight:none;stroke:none; fill:#333399" text-anchor="left" /></g><g componentSequence="144"><text x="1317" y="668" style="font-size:10px;font-weight:none;stroke:none; fill:#333399" text-anchor="left" /></g><path style="fill:none; stroke:#000000;stroke-width:1" d="M147.0 134.0 L147.0 653.0" /><polygon style="fill:#000000; stroke:#000000;" points=" 152 643 147 653 142 643 147 645" /><path style="fill:none; stroke:#000000;stroke-dasharray:2" d="M192.0 71.0 L159.0 105.0" /><path style="fill:none; stroke:#000000;stroke-width:1" d="M466.0 509.0 L519.0 509.0" /><polygon style="fill:#000000; stroke:#000000;" points=" 509 504 519 509 509 514 511 509" /><path style="fill:none; stroke:#000000;stroke-width:1" d="M310.0 437.0 L359.0 471.0" /><polygon style="fill:#000000; stroke:#000000;" points=" 354 461 359 471 348 469 352 466" /><path style="fill:none; stroke:#000000;stroke-width:1" d="M466.0 306.0 L519.0 306.0" /><polygon style="fill:#000000; stroke:#000000;" points=" 509 301 519 306 509 311 511 306" /><path style="fill:none; stroke:#000000;stroke-width:1" d="M310.0 390.0 L359.0 350.0" /><polygon style="fill:#000000; stroke:#000000;" points=" 348 352 359 350 354 360 353 355" /><path style="fill:none; stroke:#000000;stroke-width:1" d="M280.0 653.0 L280.0 462.0" /><polygon style="fill:#000000; stroke:#000000;" points=" 275 472 280 462 285 472 280 470" /><path style="fill:none; stroke:#000000;stroke-width:1" d="M736.0 509.0 L799.0 509.0" /><polygon style="fill:#000000; stroke:#000000;" points=" 789 504 799 509 789 514 791 509" /><path style="fill:none; stroke:#000000;stroke-width:1" d="M580.0 509.0 L629.0 509.0" /><polygon style="fill:#000000; stroke:#000000;" points=" 619 504 629 509 619 514 621 509" /><path style="fill:none; stroke:#000000;stroke-width:1" d="M549.0 454.0 L549.0 424.0" /><polygon style="fill:#000000; stroke:#000000;" points=" 544 434 549 424 554 434 549 432" /><path style="fill:none; stroke:#000000;stroke-width:1" d="M549.0 563.0 L549.0 708.0 L1099.0 708.0" /><polygon style="fill:#000000; stroke:#000000;" points=" 1089 703 1099 708 1089 713 1091 708" /><path style="fill:none; stroke:#000000;stroke-width:1" d="M736.0 306.0 L799.0 306.0" /><polygon style="fill:#000000; stroke:#000000;" points=" 789 301 799 306 789 311 791 306" /><path style="fill:none; stroke:#000000;stroke-width:1" d="M580.0 306.0 L629.0 306.0" /><polygon style="fill:#000000; stroke:#000000;" points=" 619 301 629 306 619 311 621 306" /><path style="fill:none; stroke:#000000;stroke-width:1" d="M1056.0 306.0 L1122.0 306.0" /><polygon style="fill:#000000; stroke:#000000;" points=" 1112 301 1122 306 1112 311 1114 306" /><path style="fill:none; stroke:#000000;stroke-width:1" d="M860.0 306.0 L949.0 306.0" /><polygon style="fill:#000000; stroke:#000000;" points=" 939 301 949 306 939 311 941 306" /><path style="fill:none; stroke:#000000;stroke-width:1" d="M829.0 251.0 L829.0 214.0" /><polygon style="fill:#000000; stroke:#000000;" points=" 824 224 829 214 834 224 829 222" /><path style="fill:none; stroke:#000000;stroke-width:1" d="M860.0 344.0 L1109.0 654.0" /><polygon style="fill:#000000; stroke:#000000;" points=" 1107 643 1109 654 1099 649 1104 648" /><path style="fill:none; stroke:#000000;stroke-width:1" d="M1413.0 911.0 L1480.0 911.0" /><polygon style="fill:#000000; stroke:#000000;" points=" 1470 906 1480 911 1470 916 1472 911" /><path style="fill:none; stroke:#000000;stroke-width:1" d="M549.0 251.0 L549.0 214.0" /><polygon style="fill:#000000; stroke:#000000;" points=" 544 224 549 214 554 224 549 222" /><path style="fill:none; stroke:#000000;stroke-width:1" d="M1152.0 251.0 L1152.0 214.0" /><polygon style="fill:#000000; stroke:#000000;" points=" 1147 224 1152 214 1157 224 1152 222" /><path style="fill:none; stroke:#000000;stroke-width:1" d="M1153.0 360.0 L1153.0 654.0" /><polygon style="fill:#000000; stroke:#000000;" points=" 1158 644 1153 654 1148 644 1153 646" /><path style="fill:none; stroke:#000000;stroke-width:1" d="M829.0 454.0 L829.0 424.0" /><polygon style="fill:#000000; stroke:#000000;" points=" 824 434 829 424 834 434 829 432" /><path style="fill:none; stroke:#000000;stroke-width:1" d="M860.0 527.0 L1099.0 675.0" /><polygon style="fill:#000000; stroke:#000000;" points=" 1093 665 1099 675 1088 674 1092 671" /><path style="fill:none; stroke:#000000;stroke-width:1" d="M274.0 156.0 L160.0 653.0" /><polygon style="fill:#000000; stroke:#000000;" points=" 167 644 160 653 157 642 162 645" /><path style="fill:none; stroke:#000000;stroke-width:1" d="M380.0 117.0 L336.0 117.0" /><polygon style="fill:#000000; stroke:#000000;" points=" 346 122 336 117 346 112 344 117" /><path style="fill:none; stroke:#000000;stroke-width:1" d="M1360.0 771.0 L1360.0 857.0" /><polygon style="fill:#000000; stroke:#000000;" points=" 1365 847 1360 857 1355 847 1360 849" /><path style="fill:none; stroke:#000000;stroke-width:1" d="M1206.0 675.0 L1252.0 646.0" /><polygon style="fill:#000000; stroke:#000000;" points=" 1241 647 1252 646 1246 656 1245 650" /><path style="fill:none; stroke:#000000;stroke-width:1" d="M1329.0 709.0 L1206.0 709.0" /><polygon style="fill:#000000; stroke:#000000;" points=" 1216 714 1206 709 1216 704 1214 709" /><path style="fill:none; stroke:#000000;stroke-width:1" d="M201.0 708.0 L249.0 708.0" /><polygon style="fill:#000000; stroke:#000000;" points=" 239 703 249 708 239 713 241 708" /><path style="fill:none; stroke:#000000;stroke-width:1" d="M1329.0 685.0 L1281.0 648.0" /><polygon style="fill:#000000; stroke:#000000;" points=" 1286 658 1281 648 1292 650 1287 653" /><path style="fill:none; stroke:#000000;stroke-width:1" d="M1281.0 648.0 L1329.0 685.0" /><polygon style="fill:#000000; stroke:#000000;" points=" 1324 675 1329 685 1318 683 1323 680" /><path style="fill:none; stroke:#000000;stroke-width:1" d="M310.0 707.0 L350.0 707.0" /><polygon style="fill:#000000; stroke:#000000;" points=" 340 702 350 707 340 712 342 707" /><defs><linearGradient xmlns:xlink="http://www.w3.org/1999/xlink" xlink:href="#linearGradient66FF6696FF96B6FFB6" id="linearGradient66FF6696FF96B6FFB6_377118981" x1="0" y1="100.0" x2="0" y2="135.0" gradientUnits="userSpaceOnUse" xlink:type="simple" xlink:actuate="onLoad" xlink:show="other" /><linearGradient id="linearGradient66FF6696FF96B6FFB6"><stop style="stop-color:#66FF66;stop-opacity:1;" offset="0.0" id="stop66FF66" /><stop style="stop-color:#96FF96;stop-opacity:1;" offset="0.5" id="stop96FF96" /><stop style="stop-color:#B6FFB6;stop-opacity:1;" offset="1.0" id="stopB6FFB6" /></linearGradient><linearGradient xmlns:xlink="http://www.w3.org/1999/xlink" xlink:href="#linearGradientF8FBFEEDF5FCDEEDFAD4E7F8E2E5E9" id="linearGradientF8FBFEEDF5FCDEEDFAD4E7F8E2E5E9_415075770" x1="0" y1="463.0" x2="0" y2="569.0" gradientUnits="userSpaceOnUse" xlink:type="simple" xlink:actuate="onLoad" xlink:show="other" /><linearGradient id="linearGradientF8FBFEEDF5FCDEEDFAD4E7F8E2E5E9"><stop style="stop-color:#F8FBFE;stop-opacity:1;" offset="0.0" id="stopF8FBFE" /><stop style="stop-color:#EDF5FC;stop-opacity:1;" offset="0.25" id="stopEDF5FC" /><stop style="stop-color:#DEEDFA;stop-opacity:1;" offset="0.5" id="stopDEEDFA" /><stop style="stop-color:#D4E7F8;stop-opacity:1;" offset="0.75" id="stopD4E7F8" /><stop style="stop-color:#E2E5E9;stop-opacity:1;" offset="1.0" id="stopE2E5E9" /></linearGradient><linearGradient xmlns:xlink="http://www.w3.org/1999/xlink" xlink:href="#linearGradientF8FBFEEDF5FCDEEDFAD4E7F8E2E5E9" id="linearGradientF8FBFEEDF5FCDEEDFAD4E7F8E2E5E9_478284405" x1="0" y1="252.0" x2="0" y2="358.0" gradientUnits="userSpaceOnUse" xlink:type="simple" xlink:actuate="onLoad" xlink:show="other" /><linearGradient xmlns:xlink="http://www.w3.org/1999/xlink" xlink:href="#linearGradientFAFBFCFFFFCC" id="linearGradientFAFBFCFFFFCC_1501595521" x1="0" y1="370.0" x2="0" y2="430.0" gradientUnits="userSpaceOnUse" xlink:type="simple" xlink:actuate="onLoad" xlink:show="other" /><linearGradient id="linearGradientFAFBFCFFFFCC"><stop style="stop-color:#FAFBFC;stop-opacity:1;" offset="0.0" id="stopFAFBFC" /><stop style="stop-color:#FFFFCC;stop-opacity:1;" offset="1.0" id="stopFFFFCC" /></linearGradient><linearGradient xmlns:xlink="http://www.w3.org/1999/xlink" xlink:href="#linearGradientF8FBFEEDF5FCDEEDFAD4E7F8E2E5E9" id="linearGradientF8FBFEEDF5FCDEEDFAD4E7F8E2E5E9_481802237" x1="0" y1="455.0" x2="0" y2="561.0" gradientUnits="userSpaceOnUse" xlink:type="simple" xlink:actuate="onLoad" xlink:show="other" /><linearGradient xmlns:xlink="http://www.w3.org/1999/xlink" xlink:href="#linearGradientFAFBFCFFFFCC" id="linearGradientFAFBFCFFFFCC_1754478988" x1="0" y1="455.0" x2="0" y2="515.0" gradientUnits="userSpaceOnUse" xlink:type="simple" xlink:actuate="onLoad" xlink:show="other" /><linearGradient xmlns:xlink="http://www.w3.org/1999/xlink" xlink:href="#linearGradientF8FBFEEDF5FCDEEDFAD4E7F8E2E5E9" id="linearGradientF8FBFEEDF5FCDEEDFAD4E7F8E2E5E9_1682855753" x1="0" y1="260.0" x2="0" y2="366.0" gradientUnits="userSpaceOnUse" xlink:type="simple" xlink:actuate="onLoad" xlink:show="other" /><linearGradient xmlns:xlink="http://www.w3.org/1999/xlink" xlink:href="#linearGradientF8FBFEEDF5FCDEEDFAD4E7F8E2E5E9" id="linearGradientF8FBFEEDF5FCDEEDFAD4E7F8E2E5E9_967801038" x1="0" y1="260.0" x2="0" y2="366.0" gradientUnits="userSpaceOnUse" xlink:type="simple" xlink:actuate="onLoad" xlink:show="other" /><linearGradient xmlns:xlink="http://www.w3.org/1999/xlink" xlink:href="#linearGradientFAFBFCFFFFCC" id="linearGradientFAFBFCFFFFCC_403060825" x1="0" y1="252.0" x2="0" y2="312.0" gradientUnits="userSpaceOnUse" xlink:type="simple" xlink:actuate="onLoad" xlink:show="other" /><linearGradient xmlns:xlink="http://www.w3.org/1999/xlink" xlink:href="#linearGradientFF6666FF9696FFB6B6" id="linearGradientFF6666FF9696FFB6B6_1764244876" x1="0" y1="894.0" x2="0" y2="929.0" gradientUnits="userSpaceOnUse" xlink:type="simple" xlink:actuate="onLoad" xlink:show="other" /><linearGradient id="linearGradientFF6666FF9696FFB6B6"><stop style="stop-color:#FF6666;stop-opacity:1;" offset="0.0" id="stopFF6666" /><stop style="stop-color:#FF9696;stop-opacity:1;" offset="0.5" id="stopFF9696" /><stop style="stop-color:#FFB6B6;stop-opacity:1;" offset="1.0" id="stopFFB6B6" /></linearGradient><linearGradient xmlns:xlink="http://www.w3.org/1999/xlink" xlink:href="#linearGradientFAFBFCFFFFCC" id="linearGradientFAFBFCFFFFCC_2135612415" x1="0" y1="252.0" x2="0" y2="312.0" gradientUnits="userSpaceOnUse" xlink:type="simple" xlink:actuate="onLoad" xlink:show="other" /><linearGradient xmlns:xlink="http://www.w3.org/1999/xlink" xlink:href="#linearGradientFAFBFCFFFFCC" id="linearGradientFAFBFCFFFFCC_1038198224" x1="0" y1="252.0" x2="0" y2="312.0" gradientUnits="userSpaceOnUse" xlink:type="simple" xlink:actuate="onLoad" xlink:show="other" /><linearGradient xmlns:xlink="http://www.w3.org/1999/xlink" xlink:href="#linearGradientFAFBFCFFFFCC" id="linearGradientFAFBFCFFFFCC_336369349" x1="0" y1="455.0" x2="0" y2="515.0" gradientUnits="userSpaceOnUse" xlink:type="simple" xlink:actuate="onLoad" xlink:show="other" /><linearGradient xmlns:xlink="http://www.w3.org/1999/xlink" xlink:href="#linearGradientF8FBFEEDF5FCDEEDFAD4E7F8E2E5E9" id="linearGradientF8FBFEEDF5FCDEEDFAD4E7F8E2E5E9_1021316501" x1="0" y1="80.0" x2="0" y2="186.0" gradientUnits="userSpaceOnUse" xlink:type="simple" xlink:actuate="onLoad" xlink:show="other" /><linearGradient xmlns:xlink="http://www.w3.org/1999/xlink" xlink:href="#linearGradientF8FBFEEDF5FCDEEDFAD4E7F8E2E5E9" id="linearGradientF8FBFEEDF5FCDEEDFAD4E7F8E2E5E9_366787797" x1="0" y1="858.0" x2="0" y2="964.0" gradientUnits="userSpaceOnUse" xlink:type="simple" xlink:actuate="onLoad" xlink:show="other" /><linearGradient xmlns:xlink="http://www.w3.org/1999/xlink" xlink:href="#linearGradientF8FBFEEDF5FCDEEDFAD4E7F8E2E5E9" id="linearGradientF8FBFEEDF5FCDEEDFAD4E7F8E2E5E9_623068315" x1="0" y1="655.0" x2="0" y2="761.0" gradientUnits="userSpaceOnUse" xlink:type="simple" xlink:actuate="onLoad" xlink:show="other" /><linearGradient xmlns:xlink="http://www.w3.org/1999/xlink" xlink:href="#linearGradientFFFF66FFFF96FFFFB6" id="linearGradientFFFF66FFFF96FFFFB6_1441354820" x1="0" y1="100.0" x2="0" y2="135.0" gradientUnits="userSpaceOnUse" xlink:type="simple" xlink:actuate="onLoad" xlink:show="other" /><linearGradient id="linearGradientFFFF66FFFF96FFFFB6"><stop style="stop-color:#FFFF66;stop-opacity:1;" offset="0.0" id="stopFFFF66" /><stop style="stop-color:#FFFF96;stop-opacity:1;" offset="0.5" id="stopFFFF96" /><stop style="stop-color:#FFFFB6;stop-opacity:1;" offset="1.0" id="stopFFFFB6" /></linearGradient><linearGradient xmlns:xlink="http://www.w3.org/1999/xlink" xlink:href="#linearGradientFFFF66FFFF96FFFFB6" id="linearGradientFFFF66FFFF96FFFFB6_1767466953" x1="0" y1="180.0" x2="0" y2="215.0" gradientUnits="userSpaceOnUse" xlink:type="simple" xlink:actuate="onLoad" xlink:show="other" /><linearGradient xmlns:xlink="http://www.w3.org/1999/xlink" xlink:href="#linearGradientFFFF66FFFF96FFFFB6" id="linearGradientFFFF66FFFF96FFFFB6_420697123" x1="0" y1="180.0" x2="0" y2="215.0" gradientUnits="userSpaceOnUse" xlink:type="simple" xlink:actuate="onLoad" xlink:show="other" /><linearGradient xmlns:xlink="http://www.w3.org/1999/xlink" xlink:href="#linearGradientFFFF66FFFF96FFFFB6" id="linearGradientFFFF66FFFF96FFFFB6_648797190" x1="0" y1="180.0" x2="0" y2="215.0" gradientUnits="userSpaceOnUse" xlink:type="simple" xlink:actuate="onLoad" xlink:show="other" /><linearGradient xmlns:xlink="http://www.w3.org/1999/xlink" xlink:href="#linearGradientFFFF66FFFF96FFFFB6" id="linearGradientFFFF66FFFF96FFFFB6_964683747" x1="0" y1="390.0" x2="0" y2="425.0" gradientUnits="userSpaceOnUse" xlink:type="simple" xlink:actuate="onLoad" xlink:show="other" /><linearGradient xmlns:xlink="http://www.w3.org/1999/xlink" xlink:href="#linearGradientFFFF66FFFF96FFFFB6" id="linearGradientFFFF66FFFF96FFFFB6_456833066" x1="0" y1="390.0" x2="0" y2="425.0" gradientUnits="userSpaceOnUse" xlink:type="simple" xlink:actuate="onLoad" xlink:show="other" /><linearGradient xmlns:xlink="http://www.w3.org/1999/xlink" xlink:href="#linearGradientF8FBFEEDF5FCDEEDFAD4E7F8E2E5E9" id="linearGradientF8FBFEEDF5FCDEEDFAD4E7F8E2E5E9_411784482" x1="0" y1="654.0" x2="0" y2="760.0" gradientUnits="userSpaceOnUse" xlink:type="simple" xlink:actuate="onLoad" xlink:show="other" /><linearGradient xmlns:xlink="http://www.w3.org/1999/xlink" xlink:href="#linearGradientFAFBFCFFFFCC" id="linearGradientFAFBFCFFFFCC_1622729177" x1="0" y1="647.0" x2="0" y2="707.0" gradientUnits="userSpaceOnUse" xlink:type="simple" xlink:actuate="onLoad" xlink:show="other" /><linearGradient xmlns:xlink="http://www.w3.org/1999/xlink" xlink:href="#linearGradientFAFBFCFFFFCC" id="linearGradientFAFBFCFFFFCC_650003154" x1="0" y1="654.0" x2="0" y2="714.0" gradientUnits="userSpaceOnUse" xlink:type="simple" xlink:actuate="onLoad" xlink:show="other" /><linearGradient xmlns:xlink="http://www.w3.org/1999/xlink" xlink:href="#linearGradientFFFF66FFFF96FFFFB6" id="linearGradientFFFF66FFFF96FFFFB6_1745569223" x1="0" y1="690.0" x2="0" y2="725.0" gradientUnits="userSpaceOnUse" xlink:type="simple" xlink:actuate="onLoad" xlink:show="other" /><linearGradient xmlns:xlink="http://www.w3.org/1999/xlink" xlink:href="#linearGradientFFFF66FFFF96FFFFB6" id="linearGradientFFFF66FFFF96FFFFB6_720060321" x1="0" y1="620.0" x2="0" y2="655.0" gradientUnits="userSpaceOnUse" xlink:type="simple" xlink:actuate="onLoad" xlink:show="other" /></defs></svg>
